<?xml version="1.0" standalone="no"?>
<!DOCTYPE svg PUBLIC "-//W3C//DTD SVG 20010904//EN"
 "http://www.w3.org/TR/2001/REC-SVG-20010904/DTD/svg10.dtd">
<svg version="1.0" xmlns="http://www.w3.org/2000/svg"
 width="560.000000pt" height="560.000000pt" viewBox="0 0 560.000000 560.000000"
 preserveAspectRatio="xMidYMid meet">
<metadata>
MetaMask Kitchen Sink
</metadata>
<g transform="translate(0.000000,560.000000) scale(0.100000,-0.100000)"
fill="#000000" stroke="none">
<path d="M227 5298 c-26 -79 -49 -147 -51 -153 -1 -5 -11 -37 -21 -70 -11 -33
-20 -62 -20 -65 -1 -3 -4 -12 -8 -20 -7 -17 -68 -200 -71 -215 -2 -5 -6 -17
-9 -25 -26 -64 -46 -145 -42 -168 2 -15 21 -106 41 -202 20 -96 38 -184 40
-195 8 -43 25 -121 30 -145 3 -14 10 -45 14 -70 5 -25 14 -67 20 -95 16 -68
18 -77 25 -127 l6 -43 -55 -40 c-31 -22 -56 -42 -56 -45 0 -3 24 -22 53 -43
28 -21 67 -50 85 -65 l32 -27 -62 -50 c-35 -27 -64 -50 -66 -51 -2 -1 18 -22
44 -46 26 -23 65 -59 87 -79 44 -40 42 -46 -28 -89 -19 -12 -35 -24 -35 -27 0
-11 102 -133 111 -133 5 0 9 -5 9 -10 0 -9 20 -34 75 -94 42 -45 54 -68 45
-89 -10 -24 -77 -234 -160 -497 -28 -91 -57 -178 -63 -195 -7 -16 -12 -32 -13
-35 0 -3 -7 -25 -14 -50 -7 -25 -14 -47 -14 -50 -1 -3 -4 -9 -7 -15 -5 -9 -11
-28 -25 -80 -1 -5 -9 -29 -18 -52 -8 -24 -13 -43 -9 -43 3 0 1 -6 -5 -12 -17
-21 -45 -136 -39 -160 3 -13 13 -48 22 -78 9 -30 18 -62 20 -70 2 -8 18 -62
35 -120 31 -105 64 -219 79 -275 8 -29 60 -205 136 -465 21 -69 40 -135 43
-148 2 -13 10 -26 17 -28 7 -3 63 9 126 26 63 17 163 45 224 61 60 16 140 39
178 50 39 11 79 23 91 25 38 9 51 12 51 14 0 1 7 3 15 5 77 18 222 59 253 70
20 8 37 13 37 10 0 -2 11 0 25 5 14 5 36 12 48 14 12 3 62 16 110 30 l88 24
24 -24 c13 -13 28 -24 32 -24 5 0 15 -9 23 -20 8 -11 18 -20 21 -20 4 0 26
-17 49 -37 23 -21 130 -100 238 -175 108 -76 202 -141 207 -145 92 -70 136
-93 177 -93 23 0 59 0 78 -1 139 -4 180 -3 180 1 0 4 85 4 100 0 3 -1 68 -1
145 0 77 1 147 1 155 0 135 -5 134 -6 262 82 66 46 126 89 133 96 8 6 16 12
19 12 3 0 41 25 83 55 43 30 87 61 97 68 19 12 77 57 86 67 3 3 28 23 55 45
28 21 52 42 55 45 3 3 24 20 47 38 33 26 46 31 60 24 10 -6 20 -10 23 -10 3 0
17 -3 31 -7 14 -3 32 -8 40 -9 8 -2 21 -6 29 -9 8 -3 76 -22 150 -42 74 -20
167 -46 205 -56 39 -11 77 -21 86 -24 33 -7 245 -66 309 -84 36 -11 119 -34
185 -51 66 -17 130 -35 142 -40 21 -9 24 -5 43 63 12 40 24 79 27 87 3 8 7 20
8 25 3 13 126 435 160 550 15 50 28 95 29 100 2 6 9 30 16 55 7 25 14 50 16
55 1 6 9 33 18 60 8 28 26 88 39 135 l24 85 -38 112 c-21 62 -35 113 -32 113
3 0 1 6 -5 13 -6 7 -13 24 -16 37 -3 14 -29 99 -59 190 -30 91 -83 253 -117
360 -34 107 -75 233 -90 279 l-28 84 55 66 c88 104 156 183 176 203 23 24 22
29 -19 58 -19 14 -42 31 -50 39 -17 15 -25 6 111 129 30 27 44 46 37 51 -6 3
-28 21 -49 38 -21 18 -46 38 -56 45 -17 13 -14 17 33 53 29 22 67 54 86 70
l34 30 -49 35 c-28 19 -53 42 -56 51 -3 8 4 60 16 115 11 54 23 110 25 124 4
20 80 386 100 485 2 11 7 34 10 50 2 17 9 47 15 67 5 20 8 47 5 60 -4 22 -140
436 -153 468 -3 8 -7 17 -8 20 0 3 -8 30 -18 60 -9 30 -16 57 -15 60 1 3 -5
16 -12 30 -8 14 -14 28 -15 31 0 3 -11 40 -25 82 -27 82 -28 83 -85 57 -21
-10 -633 -240 -650 -244 -5 -2 -23 -8 -40 -15 -16 -6 -61 -23 -100 -37 -38
-14 -79 -30 -90 -34 -11 -5 -58 -23 -105 -41 -47 -17 -132 -49 -190 -71 -58
-22 -109 -41 -115 -43 -5 -1 -17 -5 -25 -8 -8 -3 -71 -27 -140 -52 -69 -26
-154 -59 -190 -73 l-65 -26 -749 -1 -749 0 -76 28 c-42 16 -101 38 -131 49
-30 11 -64 24 -75 29 -11 5 -119 45 -240 89 -121 44 -247 92 -280 105 -101 40
-973 365 -980 365 0 0 -22 -64 -48 -142z"/>
</g>
</svg>
